<svg xmlns="http://www.w3.org/2000/svg"xmlns:xlink="http://www.w3.org/1999/xlink"viewBox="0 1000 2560 650"xmlns:v="https://vecta.io/nano"><style><![CDATA[.B{fill:#050505}.C{fill:#030303}.D{fill:#030403}.E{fill:#040404}.F{fill:#f8f8f8}.G{fill:#050705}.H{fill:#030503}.I{fill:#040604}.J{fill:#040504}.K{fill:#f9f9f9}.L{fill:#060806}.M{fill:#060606}.N{fill:#020302}.O{fill:#020202}.P{fill:#d4d4d4}]]></style><path d="M0 0h2560v2560H0V0z" fill="#fefefe"/><path d="M591 1430h1557v201H591v-201zm447-226h1447v201H1038v-201z" fill="#d1f2d1"/><path d="M2090.938 1510.5l2.396.017c7.422.227 12.272 2.038 17.53 7.373 1.451 1.642 2.806 3.369 4.137 5.109l1-12h21v79h-2l-.25 3c-1.081 7.345-5.186 14.137-10.75 19-3.213 1.989-6.511 3.557-10 5l-3.586 1.617c-5.306 1.958-10.569 1.833-16.164 1.758l-3.228-.024c-7.429-.135-14.011-.755-21.022-3.351l-2.227-.691c-1.961-.684-1.961-.684-4.773-2.309-.891-2.176-.891-2.176-1-5 1.051-2.442 2.097-4.547 3.438-6.812l1.025-1.811L2069 1596l1.652.586c10.259 3.543 22.239 7.21 32.953 3.516 1.845-.948 3.628-2.014 5.395-3.102h2l2-5 1.063-2.562c1.384-5.076 1.615-10.2 1.938-15.437h-2l-.695 1.801c-1.654 2.789-3.384 3.773-6.18 5.387l-2.617 1.543c-7.356 3.724-17.679 3.445-25.605 1.516-9.204-3.54-15.68-9.919-19.715-18.934-3.63-10.125-3.976-24.002-.223-34.145 4.591-9.616 10.757-15.936 20.841-19.557 3.706-1.032 7.303-1.143 11.132-1.111z" class="G"/><path d="M1437 1289c3.244 2.578 6.133 5.267 8 9l1-12h21l.155 27.88.071 12.95.058 12.527.033 4.749c.148 14.893-.999 29.244-11.567 40.644-10.95 10.237-23.602 10.883-37.867 10.641-9.861-.44-18.413-3.309-26.883-8.391l8-16c4 1 4 1 6.453 1.973 8.967 3.494 18.773 4.89 28.203 2.297 5.221-2.387 8.13-5.781 10.594-10.832 1.12-5.134.902-10.204.75-15.437l-1.687 1.645c-8.169 7.658-13.811 9.931-25.059 9.645-10.804-.96-18.459-5.454-25.418-13.707-7.083-9.962-7.219-22.811-5.836-34.582 2.176-9.053 6.892-16.689 14.754-21.785 11.419-6.432 23.328-7.67 35.246-1.215z" class="H"/><path d="M22 1020c55.28 0 55.28 0 65.316 8.305 6.547 6.593 8.668 14.306 9.121 23.383-.175 8.62-2.87 17.099-8.875 23.438-2.916 2.577-5.953 4.378-9.562 5.875 4.377 8.263 9.131 16.245 14.063 24.188l2.104 3.404 7.443 11.918c3.391 5.294 3.391 5.294 3.391 7.49-21.93 2.087-21.93 2.087-27.914-1.98-1.637-2.77-2.857-5.531-4.002-8.534-2.171-4.978-5.135-9.562-7.912-14.221l-4.977-8.545-1.718-2.971C57 1089 57 1089 55 1084H44v44H22v-108z" class="C"/><path d="M1611 1480h22v108h-21v-9h-2l-.625 1.688c-2.144 3.606-5.278 6.634-9.329 7.944-3.433.618-6.882.594-10.359.618l-2.225.063c-6.192.044-10.593-1.219-15.686-4.934-8.962-8.848-12.874-18.737-13.012-31.15l-.016-2.916-.062-2.857c-.063-11.445 3.098-20.764 10.941-29.209 5.728-5.303 12.02-8.417 19.871-8.746 8.811.357 13.802 3.919 20.5 9.5l1-39z" class="L"/><path d="M1656 1020h22v108h-22v-8l-1.32 1.207-1.805 1.605-1.758 1.582c-7.279 5.52-14.407 5.262-23.117 4.605-7.048-1.152-12.43-5.689-17-11-2.092-3.539-3.656-7.119-5-11l-1.105-3.133c-1.181-5.104-1.263-9.958-1.27-15.18l-.074-2.975c-.041-10.279 3.229-19.23 10.387-26.748 6.406-6.128 12.138-8.945 21-9.402 8.631.296 14.028 3.403 20.063 9.438l1-39z" class="C"/><path d="M2188 1289c10.061 7.258 13.968 15.976 16 28 .763 7.995.113 16.069-1 24h-2l-.25 2.063c-2.272 8.897-8.262 14.214-15.785 18.922-6.292 3.252-14.632 2.892-21.418 1.52-4.916-1.66-6.68-3.637-10.547-7.504l-1 39h-22v-108h21l1 8 1.688-2.312c8.874-10.313 23.144-9.448 34.313-3.687z" class="I"/><path d="M2199 1020h21v108h-22v-8l-1.32 1.207-1.805 1.605-1.758 1.582c-5.067 3.843-9.563 5.166-15.867 5.105l-2.133-.02c-8.173-.285-14.1-3.101-19.867-8.918-7.688-9.934-9.789-18.997-9.875-31.312l-.033-3.191c.213-11.711 4.344-21.034 12.72-29.246 5.872-5.051 12.366-6.742 20-7.25 6.306.701 12.387 2.599 17.063 7.063C2197 1059 2197 1059 2197 1061h2v-41z" class="M"/><path d="M21 1480h21l1 40 9-8c7.533-3.228 14.497-2.83 22.063 0 9.643 4.38 15.135 11.229 18.938 21 4.574 13.577 2.686 28.072-3 41-3.872 6.936-8.792 10.829-16 14l-2.395 1.117c-3.028 1.026-5.478 1.115-8.668 1.07l-3.098-.02c-2.441-.144-4.508-.469-6.84-1.168v-2l-2.187-.125c-4.045-1.259-5.307-3.511-7.812-6.875l-1 8H21v-108zm974.375-422.875c4.187 4.016 6.492 8.534 8.625 13.875l.969 2.301c4.376 12.053 3.094 26.903-2.223 38.414-4.15 7.52-10.009 14.183-18.414 16.852-8.025 1.492-16.107 1.363-23.332-2.566l-6-7-1 41h-21v-108h21l1 7 1.434-1.461c11.116-10.617 27.023-9.927 38.941-.414z" class="C"/><path d="M638 1020h21v108h-21l-1-8-2.062 2.25c-5.59 5.405-9.431 7.022-17.25 7.25-8.474-.259-15.089-1.851-21.5-7.562-8.335-9.141-10.547-21.325-10.562-33.25l-.074-2.975c-.045-11.24 4.067-20.088 11.637-28.338 5.741-5.474 11.334-7.584 19.25-7.937 8.771.277 14.446 3.446 20.563 9.563l1-39z" class="E"/><path d="M251 1020h21v108h-21l-1-8-2.062 2.25c-5.59 5.405-9.431 7.022-17.25 7.25-8.474-.259-15.089-1.851-21.5-7.562-8.471-9.31-10.546-21.697-10.562-33.812l-.074-2.816c-.046-11.03 4.227-19.858 11.637-27.934 5.741-5.474 11.334-7.584 19.25-7.937 8.771.277 14.446 3.446 20.563 9.563l1-39z" class="C"/><path d="M2273 1290c7.869 5.779 15.051 12.945 17.375 22.688 2.049 13.585.801 25.353-6.66 36.992-5.504 7.447-12.72 12.094-21.715 14.32-12.65 1.493-23.412.103-33.93-7.336-7.692-6.183-11.804-14.162-14.07-23.664-1.006-9.855-1.263-20.317 4-29l1.25-2.125c11.549-17.324 36.105-22.628 53.75-11.875z" class="J"/><path d="M1271 1055c8.751 6.465 15.533 14.372 17.625 25.25 1.25 12.5-.112 24.723-7.473 35.273-5.947 6.843-14.164 12.572-23.333 13.759-2.261.118-4.493.135-6.757.093l-2.402-.031c-10.518-.279-18.7-3.702-26.418-11.008-7.549-8.308-10.637-18.098-10.555-29.211l.017-2.416c.217-10.503 3.578-18.916 11.065-26.502 13.328-11.76 32.712-14.795 48.23-5.207z" class="E"/><path d="M1919.438 1510.5l2.805.037c11.966.349 20.275 4.733 28.507 13.338 7.69 10.68 9.653 22.068 7.625 35-2.398 10.518-7.423 19.01-16.375 25.125-3.974 2.21-7.409 4-12 4v2c-13.034.652-23.713.411-34.312-8.25A104.65 104.65 0 0 1 1892 1578l-1.937-2.062c-8.294-9.676-8.909-20.774-8.227-33.008.976-11.48 7.372-18.552 15.527-26.07 7.08-4.993 13.482-6.539 22.074-6.359z" class="J"/><path d="M1787 1292c8.637 6.78 13.139 15.426 14.719 26.211 1.382 13.706-1.355 23.718-9.719 34.789-5.335 6.213-13.131 10.332-21.273 11.259-2.497.159-4.975.226-7.477.241l-2.399.019c-9.923-.214-18.377-4.355-25.577-11.148-10.09-11.151-11.031-22.723-10.448-37.169.368-4.635 1.755-8.277 4.175-12.202l1.438-2.348c5.756-8.289 14.285-13.721 24.027-16.223 11.608-1.967 22.616.283 32.535 6.57z" class="D"/><path d="M553.449 1517c3.746 2.937 6.714 6.193 9.551 10l1.75 2.313c5.008 10.768 6.093 22.594 2.625 34-4.105 10.817-10.333 18.468-20.75 23.563-10.079 3.96-21.126 2.561-31.625 1.125v-2l-2.254-.309c-8.139-2.049-13.858-10.956-18.004-17.754-4.633-9.331-4.189-22.459-1.742-32.437 3.93-10.426 11.117-17.641 21-22.5 13.251-5.688 27.656-4.007 39.449 4z" class="E"/><path d="M493.77 1053.441c7.88 5.507 12.761 10.353 14.811 19.889.778 4.959.662 9.916.614 14.923l-.009 3.459-.062 10.85-.027 7.393L509 1128h-20l-1-8-1.32 1.207-1.805 1.605-1.758 1.582c-5.396 4.092-9.844 5.134-16.43 5.043l-2.281-.021c-5.852-.169-10.462-1.138-15.407-4.417l-3.25-2.125c-5.51-5.761-8.041-11.501-8.375-19.5.319-7.142 2.323-11.287 7.492-16.121 6.237-5.06 12.357-6.518 20.379-6.449l1.988.009 6.204.062 4.24.027L488 1081l-.879-3.879-.494-2.182c-.872-2.698-2.142-3.659-4.627-4.939-9.303-3.101-19.381-1.191-28 3l-5 3-9-13c3.362-6.723 9.899-8.791 16.75-11.312 11.424-3.279 26.382-4.216 37.02 1.754z" class="B"/><path d="M2013.5 1049.685c10.906.172 19.757 3.37 27.5 11.315 1.553 2.374 2.154 4.213 3 7l1.054 2.951c1.511 5.342 1.192 10.82 1.141 16.326l-.009 3.535-.062 11.125-.027 7.564L2046 1128h-20l-1-7h-2l-2.25 2.313c-5.762 5.631-11.429 6.284-19.134 6.236-8.276-.291-14.956-2.876-20.87-8.81-5.486-6.705-6.178-11.887-6.082-20.477.597-5.801 3.03-9.106 7.203-13.008 6.237-5.06 12.357-6.518 20.379-6.449l1.988.009 6.204.062 4.24.027L2025 1081c-1.498-6.146-1.498-6.146-5.246-11.031-9.195-3.235-18.708-1.306-27.266 2.742L1990 1074l-2.332 1.164-1.668.836-4-5.75-2.25-3.234C1978 1064 1978 1064 1978 1060c5.695-5.258 13-7.03 20.41-8.457 5.116-1.072 9.514-1.853 15.089-1.858z" class="M"/><path d="M1228.535 1509.793c10.65-.308 18.954 1.656 27.465 8.207 6.034 6.034 9.173 12.637 9.454 21.162l-.063 6.967-.017 3.728-.123 11.706-.055 7.971L1265 1589h-20l-1-8-1.828 1.242-2.422 1.633-2.391 1.617L1235 1587l-1.812 1.18c-3.267 1.225-6.497 1.115-9.937 1.07l-2.16-.012c-5.017-.083-9.347-.657-14.09-2.238v-2l-1.809-.309c-4.431-1.398-7.027-5.636-9.242-9.547-2.661-6.117-3.18-13.04-1.258-19.449 2.68-5.943 6.686-9.352 12.48-12.32 6.745-2.445 14.255-1.686 21.328-1.562l4.516.041L1244 1542l-.75-4.875-.422-2.742c-.602-2.507-.602-2.507-2.719-3.641-9.922-3.491-19.148-2.453-28.586 1.969L1209 1534l-2.336 1.164-1.664.836-4.562-5.75-1.326-1.633c-3.159-4.08-3.159-4.08-2.927-6.676 1.436-3.417 4.943-4.538 8.128-6.066l2.201-1.068c7.316-3.409 13.998-4.544 22.022-5.014z" class="G"/><path d="M1324 1292c6.208 5.892 10.175 12.391 10.454 21.049l-.063 6.982-.017 3.732-.123 11.736-.055 7.984L1334 1363h-20l-1-7-2.336 1.496-3.039 1.941-3.023 1.934c-6.508 4.075-15.761 3.609-23.227 2.098-8.319-2.989-13.247-7.83-17.375-15.469-2.118-6.443-1.803-13.986.91-20.187 3.639-6.053 9.365-8.729 15.827-11.001 6.097-1.516 12.208-1.224 18.451-1.062l4.041.055 9.771.195-.879-3.879-.494-2.182c-.872-2.698-2.142-3.659-4.627-4.939-9.046-3.015-18.07-1.228-26.477 2.711L1278 1309l-2.336 1.164-1.664.836-3.937-5.25-2.215-2.953c-1.601-2.424-2.424-3.973-2.848-6.797 17.427-10.835 40.696-17.179 59-4z" class="H"/><path d="M352.281 1516.543c5.708 4.519 8.452 9.658 10.719 16.457.088 1.825.118 3.654.114 5.481v3.397l-.016 3.665-.004 3.754-.025 9.869-.02 10.075L363 1589h-20l-2-8-2.625 2.313c-5.212 4.592-10.241 6.207-17.125 6.063l-2.133-.033c-7.852-.239-14.202-1.166-20.055-6.655-5.74-6.402-7.388-12.777-7.277-21.16.461-5.423 2.969-10.179 6.616-14.185 7.997-6.713 18.443-5.822 28.224-5.592l4.488.055L342 1542l-.879-3.848-.494-2.164c-.885-2.808-2.307-4.23-4.627-5.988-9.046-3.015-18.07-1.228-26.477 2.711L307 1534l-2.336 1.164L303 1536l-4.562-5.75-1.326-1.633c-3.064-3.956-3.064-3.956-3.268-6.781 1.814-2.881 4.228-3.902 7.219-5.461l3.348-1.789c14.029-6.198 34.931-6.795 47.871 1.957z" class="B"/><path d="M1421.535 1509.793c10.625-.307 18.984 1.638 27.465 8.207 5.99 5.757 8.811 12.305 9.085 20.543l.013 9.418-.004 3.472-.031 10.942-.014 7.434L1458 1588h-20l-1-7-1.574 1.242-2.113 1.633-2.074 1.617c-7.675 5.17-17.63 4.524-26.449 2.926-7.159-2.196-11.659-6.228-15.789-12.418-2.892-6.627-2.981-13.903-.812-20.75 3.694-6.624 6.604-9.741 13.645-12.441 6.473-1.654 13.162-1.215 19.792-1.059l4.488.055L1437 1542l-.75-4.875-.422-2.742c-.602-2.507-.602-2.507-2.719-3.641-9.922-3.491-19.148-2.453-28.586 1.969L1402 1534l-2.336 1.164-1.664.836-4.562-5.75-1.326-1.633c-3.159-4.08-3.159-4.08-2.927-6.676 1.436-3.417 4.943-4.538 8.128-6.066l2.201-1.068c7.316-3.409 13.998-4.544 22.022-5.014z" fill="#040605"/><path d="M1917 1255h21v41h2l.688-1.75c2.941-5.041 7.472-7.094 12.863-8.707 8.449-1.873 15.727-.295 23.449 3.457 5.328 3.433 8.9 7.546 10.585 13.691.927 5.164.654 10.452.61 15.68l-.009 3.871-.049 10.125-.04 10.357L1988 1363h-21l-.044-4.495-.218-16.538-.084-7.152-.142-10.292-.019-3.22c-.108-5.461-.291-9.654-3.492-14.303-3.423-2.282-4.841-2.297-8.875-2.312l-3.117-.051c-3.681.445-5.217.881-8.008 3.363-3.671 6.811-4.599 13.188-4.609 20.82l-.05 2.984-.091 9.321-.09 6.367L1938 1363h-21v-108z" class="D"/><path d="M1486 1255h21l1 40 8-7c8.413-3.726 15.902-4.247 24.688-1.375 6.492 2.617 10.857 5.658 14.188 11.875 1.641 5.104 2.251 9.881 2.239 15.23v3.335l-.016 3.552-.004 3.674-.031 11.584-.014 7.867L1557 1363h-21l-.044-4.495-.218-16.538-.084-7.152-.142-10.292-.019-3.22c-.108-5.461-.291-9.654-3.492-14.303-3.423-2.282-4.841-2.297-8.875-2.312l-3.117-.051c-3.681.445-5.217.881-8.008 3.363-3.671 6.811-4.599 13.188-4.609 20.82l-.05 2.984-.091 9.321-.09 6.367L1507 1363h-21v-108z" class="N"/><path d="M718 1020h21l1 40 7-7c8.582-3.912 16.841-4.307 25.813-1.312 7.53 3.068 11.607 7.018 15.188 14.313 1.063 3.293 1.121 6.329 1.114 9.778v3.518l-.016 3.782-.004 3.884-.025 10.199-.02 10.417L789 1128h-21l-.044-4.495-.218-16.538-.084-7.152-.142-10.292-.019-3.22c-.108-5.466-.303-9.641-3.492-14.303-4.343-2.961-7.802-3.557-13-3-4.058 1.353-6.156 2.823-8.312 6.438-2.012 4.248-2.801 7.479-2.893 12.147l-.06 2.729-.051 2.92-.063 3.01-.183 9.506-.131 6.449L739 1128h-21v-108z" class="O"/><path d="M1167.641 1516.762c7.655 6.248 11.832 14.52 13.359 24.238v16h-51c3.111 8.533 3.111 8.533 10 13 9.442.673 17.462.534 26-4l4-2 3.938 5.75 2.215 3.234c1.577 2.575 2.241 4.158 2.848 7.016l-7.687 4-2.186 1.156c-3.832 1.96-6.701 3.402-11.127 2.844v2c-14.118.645-25.9.969-37.437-8.312-8.477-8.178-11.575-17.758-11.916-29.375-.106-11.872 1.92-21.701 9.354-31.312 13.826-13.398 33.554-14.971 49.641-4.238zm-403.778.461c7.893 6.565 10.907 13.877 13.137 23.777v16h-51c3.111 8.533 3.111 8.533 10 13 9.442.673 17.462.534 26-4l4-2 4 5.75 2.25 3.234C774 1576 774 1576 774 1580l-7.187 4-2.041 1.156c-3.724 2.034-6.4 3.387-10.771 2.844v2l-10.5.188-2.977.076c-6.255.063-10.816-.675-16.523-3.264v-2l-2.215-.223c-5.402-1.508-8.564-6.406-11.785-10.777-5.94-11.233-7.208-26.208-3.875-38.5 3.754-10.096 9.277-17.39 18.832-22.559 13.001-5.92 27.508-3.854 38.906 4.281z" class="I"/><path d="M1749.695 1055.988c5.248 4.429 8.99 8.532 11.305 15.012l.895 2.16c3.059 8.366 2.105 14.112 2.105 23.84h-51c2.986 7.006 2.986 7.006 8 12 3.441 1.147 6.187 1.168 9.813 1.188l3.645.043c5.049-.328 8.989-1.668 13.168-4.48 3.375-1.75 3.375-1.75 5.352-1.203 2.698 1.938 4.036 4.132 5.773 6.953l1.859 2.969C1762 1117 1762 1117 1762 1119c-2.309 1.621-2.309 1.621-5.437 3.438l-3.059 1.809c-7.871 3.94-14.654 5.258-23.441 5.191l-2.803.061c-9.149-.006-17.202-2.858-24.373-8.604-8.9-8.937-11.286-19.044-11.262-31.207.039-11.679 2.154-20.988 10.375-29.687 12.376-12.229 33.522-14.467 47.695-4.012z" class="B"/><path d="M2056.18 1289.289c10.187 7.189 14.396 15.587 16.82 27.711v15h-51c2.602 8.032 2.602 8.032 8.367 12.152 8.481 2.731 17.614 1.634 25.582-2.082L2058 1341l2.27-1.133 1.73-.867 3.375 4.688 1.898 2.637c1.621 2.512 2.725 4.869 3.727 7.676-10.865 6.635-18.485 10.178-31.25 10.25l-2.738.063c-9.943.057-18.439-2.724-26.012-9.312-9.915-12.053-10.894-23.992-10-39 1.361-9.204 6.052-17.888 13.188-23.875 12.191-8.595 28.803-10.636 41.992-2.836z" class="D"/><path d="M859.25 1055.75c8.529 6.978 12.598 14.492 14.75 25.25v16h-51c2.534 7.716 2.534 7.716 8 12 3.441 1.147 6.187 1.168 9.813 1.188l3.645.043c5.03-.327 9.016-1.697 13.23-4.418L861 1104c4.052 1.351 4.875 3.396 7.188 6.938l2.168 3.277C872 1117 872 1117 872 1119c-2.309 1.621-2.309 1.621-5.437 3.438l-3.059 1.809c-7.733 3.871-14.371 5.242-23.004 5.129l-2.684.035c-9.82-.043-18.346-2.911-25.816-9.41-10.294-12.514-11.108-25.395-10-41 1.876-10.146 8.274-18.926 16.715-24.781 13.274-7.079 27.75-5.353 40.535 1.531z" class="B"/><path d="M272.086 1291.504c8.371 6.543 11.396 14.423 13.914 24.496v16h-51c2.534 7.716 2.534 7.716 8 12 8.309 2.77 18.12 1.721 25.949-1.93L271 1341l2.27-1.133L275 1339l4.063 5.75 2.285 3.234c1.652 3.016 1.652 3.016 1.68 5.215-1.426 2.499-3.044 3.426-5.527 4.863l-2.469 1.473c-7.563 3.655-14.145 4.95-22.531 4.84l-2.684.035c-9.809-.043-18.369-2.899-25.816-9.41-9.905-11.773-10.894-23.735-10.227-38.601.508-5.384 2.488-9.805 5.227-14.399l1.352-2.289c4.982-7.432 12.319-11.997 20.91-14.242 11.298-1.934 21.301-.358 30.824 6.035zm653.066.051c7.997 6.255 12.382 14.554 13.848 24.445v16h-51c2.602 8.032 2.602 8.032 8.367 12.152 8.481 2.731 17.614 1.634 25.582-2.082L924 1341l2.27-1.133L928 1339l3.938 5.75 2.215 3.234c1.531 2.498 2.412 4.169 2.848 7.016l-7.125 3.375-2.016.961c-7.603 3.578-13.758 5.006-22.172 4.977l-2.725.049c-9.929.007-18.394-2.815-25.963-9.361-9.58-10.582-10.829-22.431-10.414-36.168.389-6.301 2.187-11.419 5.414-16.832l1.352-2.289c4.982-7.432 12.319-11.997 20.91-14.242 11.394-1.95 21.282-.295 30.891 6.086zm-399.066-.051c8.371 6.543 11.396 14.423 13.914 24.496v16h-51c2.534 7.716 2.534 7.716 8 12 8.309 2.77 18.12 1.721 25.949-1.93L525 1341l2.27-1.133L529 1339l4.063 5.75 2.285 3.234c1.652 3.016 1.652 3.016 1.68 5.215-1.426 2.499-3.044 3.426-5.527 4.863l-2.469 1.473c-7.563 3.655-14.145 4.95-22.531 4.84l-2.684.035c-9.845-.043-18.318-2.925-25.816-9.41-9.58-10.582-10.829-22.431-10.414-36.168.389-6.301 2.187-11.419 5.414-16.832l1.352-2.289c4.982-7.432 12.319-11.997 20.91-14.242 11.298-1.934 21.301-.358 30.824 6.035zm1508.074 222.68c5.697 3.759 8.654 8.401 10.84 14.816.635 4.717.586 9.349.488 14.102l-.021 3.993-.124 10.406-.099 10.66L2045 1589h-21l-.113-10.437-.149-10.058-.084-6.966-.142-10.039-.019-3.123c-.124-6.118-.802-10.843-3.492-16.377-4.689-3.126-9.516-2.689-15-2-4.102 1.709-5.776 4.515-7.62 8.51-1.808 5.073-1.856 9.994-1.891 15.334l-.054 3.06-.121 9.597-.104 6.539L1995 1589h-21v-77h22l1 7 1.25-1.207c10.473-9.608 23.47-10.425 35.91-3.609z" class="C"/><path d="M1432 1051h21l.078 10.438.129 10.058.063 6.966.12 10.039.004 3.123c.124 6.175.836 11.311 4.606 16.377 3.478 2.319 4.903 2.243 9 2.188l3.188-.02c2.893-.051 2.893-.051 5.813-1.168 1.135-2.295 1.135-2.295 2-5l1.063-2.437c2.178-5.952 2.136-12.077 2.254-18.336l.063-2.799.183-8.802.131-5.988L1482 1051h21v77h-21l-1-8-2.187 2.313c-7.17 6.851-14.247 7.234-23.75 7.02-5.481-.308-9.799-1.815-14.062-5.332-2.398-2.819-4.271-5.734-6-9l-1.094-1.84c-2.783-6.634-2.036-14.396-2.004-21.437l.004-3.535.031-11.125.014-7.564.048-18.5zm-128 0h21l.113 10.219.149 9.85.084 6.82.142 9.83.019 3.057c.137 6.641.615 13.068 5.301 18.209 2.878 1.334 5.092 1.344 8.254 1.266l3.16-.047c2.863-.095 2.863-.095 5.777-1.203 1.133-2.069 1.133-2.069 2-5l.736-2.122c2.032-6.192 2.729-11.767 2.776-18.261l.054-2.849.121-8.893.104-6.078.21-14.798h21v77h-21l-1-8-2.187 2.313c-7.17 6.851-14.247 7.234-23.75 7.02-5.481-.308-9.799-1.815-14.062-5.332-2.398-2.819-4.271-5.734-6-9l-1.094-1.84c-2.783-6.634-2.036-14.396-2.004-21.437l.004-3.535.031-11.125.014-7.564.048-18.5zm803.375-1.125l2.23.027 5.395.098v2l2.125.25c5.828 1.52 9.659 5.319 13.676 9.578 3.604 6.527 2.328 15.99 2.297 23.203l-.004 3.732-.031 11.736-.014 7.984L2133 1128h-21l-.044-4.495-.218-16.538-.084-7.152-.142-10.292-.019-3.22c-.108-5.466-.303-9.641-3.492-14.303-4.336-2.957-7.81-3.637-13-3-4.173 1.523-6.505 3.208-8.875 7-1.491 3.975-2.247 7.34-2.33 11.585l-.06 2.729-.051 2.92-.063 3.01-.183 9.506-.131 6.449L2083 1128h-21v-77h21v10h2l.625-1.687c4.937-8.304 12.82-9.647 21.75-9.437z" class="B"/><path d="M1582.102 1055.25c5.105 3.823 7.241 8.703 8.898 14.75.504 4.567.468 9.074.391 13.664l-.017 3.858-.099 10.051-.079 10.298L1591 1128h-21l-.044-4.495-.218-16.538-.084-7.152-.142-10.292-.019-3.22c-.108-5.466-.303-9.641-3.492-14.303-4.336-2.957-7.81-3.637-13-3-4.173 1.523-6.505 3.208-8.875 7-1.491 3.975-2.247 7.34-2.33 11.585l-.06 2.729-.051 2.92-.063 3.01-.183 9.506-.131 6.449L1541 1128h-21v-77h21l1 9 1.758-1.68c11.468-10.635 24.796-11.128 38.344-3.07z" class="E"/><path d="M1533.355 1513.258c6.329 3.944 10.229 8.122 12.241 15.48.906 5.078.643 10.275.599 15.415l-.009 3.804-.049 9.947-.04 10.176L1546 1588h-21l-.148-10.254-.169-9.869-.104-6.841-.164-9.852-.035-3.072c-.014-9.171-.014-9.171-4.137-17.018-4.514-2.202-9.368-1.772-14.242-1.094-4.106 1.722-5.777 4.516-7.62 8.523-1.784 5.004-1.856 9.833-1.891 15.102l-.054 2.992-.121 9.383-.104 6.395L1496 1588h-21v-76h21v9h2l.688-1.75c2.741-4.698 7.076-6.992 12.074-8.715 7.556-1.807 15.751-.931 22.594 2.723z" class="D"/><path d="M362 1289c5.866 3.693 8.729 8.572 11 15 .639 4.644.586 9.202.488 13.883l-.021 3.926-.124 10.228-.099 10.479L373 1363h-21l-.028-4.479-.179-16.499-.063-7.132-.12-10.269-.004-3.205c-.125-6.317-.827-10.281-4.606-15.416-4.44-2.22-10.178-1.515-15-1-4.819 3.084-6.533 7.614-8 13-.433 3.544-.488 7.058-.512 10.625l-.054 2.992-.121 9.383-.104 6.395L323 1363h-21v-76h21l1 8 1.504-1.426c11.14-10.21 22.943-11.241 36.496-4.574z" fill="#010101"/><path d="M2408 1289c6.588 4.203 9.279 8.447 11 16 .389 4.528.351 9.025.293 13.566l-.013 3.863-.074 10.076-.06 10.318L2419 1363h-21l-.044-4.495-.218-16.538-.084-7.152-.142-10.292-.019-3.22c-.108-5.472-.314-9.628-3.492-14.303-3.505-2.587-6.24-3.237-10.5-3-4.687.75-7.295 2.413-10.5 6-2.931 6.32-3.465 11.714-3.512 18.625l-.054 2.992-.121 9.383-.104 6.395L2369 1363h-21v-76h21v9h2l.688-1.75c2.72-4.662 7.041-7.017 12.02-8.707 8.556-2.026 16.543-.506 24.293 3.457z" class="D"/><path d="M107 1512h21l.113 10.254.149 9.869.084 6.841.142 9.852.019 3.072c.119 5.777.661 10.029 3.492 15.111 4.234 3.201 8.492 3.581 13.66 3.418 3.709-.663 5.207-2.418 7.34-5.418 3.469-6.591 3.175-14.373 3.316-21.652l.063-2.728.183-8.557.131-5.83L157 1512h21v76h-21l-1-8-1.437 2.25c-4.601 4.938-9.188 6.702-15.906 7.102l-4.781.086-2.315.031c-6.107-.093-10.892-1.195-15.669-5.265-6.147-7.318-9.027-14.048-9.004-23.728v-3.275l.016-3.501.004-3.611.031-11.401.014-7.736L107 1512z" class="C"/><path d="M114 1052h21l.113 10.254.149 9.869.084 6.841.142 9.852.019 3.072c.134 6.525.581 12.146 5.375 17.029 4.772 2.439 10.409 1.299 15.555.645 3.462-2.111 3.939-4.279 5.02-8.078 1.324-6.059 1.74-11.858 1.859-18.039l.063-2.732.183-8.588.131-5.844L164 1052h21v76h-21l-1-8-2 2.25c-6.555 6.321-12.782 7.364-21.629 7.295-7.639-.316-13.355-2.529-18.809-7.982-5.873-9.631-6.86-17.872-6.758-28.937l.009-3.531.062-11.094.027-7.551L114 1052zm668 235h21l.113 10.254.149 9.869.084 6.841.142 9.852.019 3.072c.134 6.525.583 12.142 5.371 17.029 4.607 2.35 10.046 1.443 14.996.582 3.998-2.822 5.674-7.345 6.655-12.031.599-4.422.702-8.785.786-13.243l.063-2.799.183-8.802.131-5.988L832 1287h21v76h-21l-1-8-1.375 2.25c-5.593 5.859-12.22 7.018-20.125 7.25-7.594-.253-13.778-1.159-19.559-6.348-7.815-8.953-8.398-20.312-8.234-31.699l.013-3.446.093-10.757.041-7.352L782 1287z" class="O"/><path d="M854 1512h23l2.266 7.086 2.214 6.891 1.519 4.742c3.773 11.832 3.773 11.832 8.231 23.42.66 1.593 1.225 3.225 1.771 4.861l.556-1.65 5.743-16.984 2.142-6.341 3.083-9.107.963-2.87.91-2.669.794-2.348C908 1515 908 1515 910 1512c2.247-.341 2.247-.341 5.008-.293l2.988.029 3.129.076 3.152.041L932 1512c-.611 3.541-1.55 6.627-2.949 9.934l-1.288 3.074-1.45 3.429-3.246 7.773-.92 2.205-12.936 31.56-4.291 10.531L889 1620h-23c1.797-5.392 3.486-10.36 5.734-15.504l1.488-3.494 3.102-7.141 1.473-3.49 1.354-3.127c2.103-8.039-1.373-14.993-4.448-22.322l-1.305-3.175-4.148-9.997-2.75-6.668-5.112-12.349-1.171-2.825-2.629-6.194-1.389-3.252-1.274-2.952C854 1515 854 1515 854 1512z" class="J"/><g class="E"><path d="M1128 1052h23l10.558 31.674.716 2.128 1.505 4.71.779 2.473.694 2.257c.61 1.959.61 1.959 2.749 2.759l.331-1.653c1.177-5.612 2.771-10.927 4.708-16.319l.866-2.45 2.72-7.64 1.852-5.225L1183 1052h23c-3.375 10.124-3.375 10.124-4.938 13.933l-1.068 2.613-1.135 2.751-1.21 2.956-3.899 9.497-4.061 9.914-2.733 6.67-13.309 32.744L1163 1159h-22c.825-4.951 1.769-8.221 3.723-12.719l1.631-3.824 2.574-5.944 2.482-5.794 1.504-3.471c2.549-7.626-.094-12.942-3.078-20.025l-1.302-3.162-4.159-9.998-2.738-6.619-5.267-12.716-6.019-14.668-1.404-3.463C1128 1054 1128 1054 1128 1052zm-437.555 239.715c3.84 3.145 5.912 5.536 7.555 10.285l-6.687 3.563-1.896 1.037c-2.879 1.492-4.933 2.427-8.205 2.244-2.211-.844-2.211-.844-4.898-2.906-4.408-2.578-8.299-2.68-13.312-1.937-3.224 1.641-3.224 1.641-3.5 4.438.234 2.719.234 2.719 2.543 4.102 3.495 1.727 6.989 2.573 10.77 3.398 10.213 2.431 16.924 5.197 23.188 14.063 2.678 5.239 2.895 11.241 2 17-3.327 7.939-9.143 11.687-16.625 15.25-11.162 3.525-23.957 3.151-34.375-2.25-5.725-3.407-9.517-7.34-13-13v-2l7.25-3.562 2.066-1.037c5.166-2.483 5.166-2.483 7.811-2.062 2.108.745 3.342 1.671 4.998 3.162 3.777 3.284 5.353 3.655 10.25 3.688l2.898.043c2.757-.233 4.376-.821 6.727-2.23v-5c-5.45-2.313-10.858-4.278-16.562-5.875-7.837-2.357-14.98-5.993-19.437-13.125-2.863-6.012-3.234-13.166-1.195-19.5 3.59-7.328 9.304-10.998 16.758-13.875 12.501-2.37 24.287-1.341 34.883 6.09z"/><use xlink:href="#B"/></g><path d="M1047.32 1049.684c10.139-.533 18.871 2.002 27.078 8.098 3.501 3.258 4.904 5.415 5.602 10.219l-6.25 2.438-3.516 1.371L1067 1073l-2.195.813c-2.552.265-3.442-.69-5.43-2.25-4.618-3.119-8.923-3.482-14.375-2.562l-3 2c-.25 2.584-.25 2.584 0 5 5.804 2.638 11.615 4.401 17.771 6.018 7.939 2.208 13.485 6.264 18.229 12.982 2.927 6.121 2.865 12.404.75 18.75-4.27 7.929-9.61 10.856-17.75 14.25-3.375.875-3.375.875-7 1l-3.148.184c-11.407.408-20.099-1.906-28.969-9.234-2.912-3.015-4.321-6.078-5.883-9.949l5.625-2.937 3.164-1.652c3.212-1.411 5.707-2.251 9.211-2.41 2.047 1.18 2.047 1.18 3.75 2.875 3.839 3.718 5.764 4.28 11.188 4.313l3.215.043c3.05-.015 3.05-.015 5.848-2.23.25-2.584.25-2.584 0-5-5.433-2.305-10.805-4.252-16.5-5.812-8.071-2.455-14.938-6.149-19.625-13.375-2.929-6.107-2.961-12.613-1.281-19.109 2.434-5.814 6.976-9.687 12.406-12.703 4.705-1.629 9.397-1.847 14.32-2.316z" class="B"/><path d="M1718.188 1510.625l3.002-.074c8.717-.034 16.707 1.895 23.373 7.824l1.941 1.648c1.95 2.577 2.17 4.804 2.496 7.977l-6.187 3.063-3.48 1.723c-3.491 1.273-4.892 1.461-8.332.215l-2.687-2.062c-4.35-2.544-8.36-2.884-13.312-1.937-1.96 1.095-1.96 1.095-3 3 .23 2.655.23 2.655 1 5 7.996 2.808 7.996 2.808 16.188 4.938 7.562 2.108 13.434 5.495 17.813 12.063 3.038 5.695 4.077 11.61 3 18-2.498 6.116-6.939 11.019-12.914 13.934-11.646 4.699-25.389 4.457-37.086.066-6.01-3.248-10.52-8.147-14-14v-2l7.75-3.625 2.211-1.062c5.455-2.48 5.455-2.48 8.469-1.617 1.57 1.305 1.57 1.305 2.945 2.805 4.294 3.964 9.846 3.732 15.355 3.766 2.55-.124 2.55-.124 5.27-2.266.25-2.584.25-2.584 0-5-6.052-2.055-6.052-2.055-12.176-3.879-10.696-3.004-18.394-6.877-24.57-16.406-2.687-5.817-2.009-11.855-.316-17.902 2.444-5.672 7.858-10.319 13.386-12.896 4.547-1.558 9.098-1.286 13.864-1.292z" fill="#050605"/><path d="M1121.445 1291.715c3.84 3.145 5.912 5.536 7.555 10.285l-7.875 4.063-2.262 1.182-2.168 1.104-2 1.031-1.696.621-2-1v-2l-2.375-.937C1106 1305 1106 1305 1104 1304c-1.643-.121-3.291-.175-4.937-.187l-2.652-.043c-2.673.064-2.673.064-5.41 2.23-.667 2.457-.667 2.457 0 5 3.915 2.95 8.113 3.912 12.813 4.938 11.343 2.691 17.328 6.097 24.063 15.75 2.009 5.914 2.464 12.047.059 17.914-4.19 6.828-10.336 10.999-17.934 13.398-12.129 2.37-23.923 2.14-34.535-4.613-4.474-3.281-7.842-6.484-10.465-11.387v-2l7.25-3.562 2.066-1.037c5.166-2.483 5.166-2.483 7.811-2.062 2.108.745 3.342 1.671 4.998 3.162 3.945 3.431 5.669 3.656 10.813 3.688l3.215.043c3.05-.015 3.05-.015 5.848-2.23.25-2.584.25-2.584 0-5-5.45-2.313-10.858-4.278-16.562-5.875-7.837-2.357-14.98-5.993-19.437-13.125-2.863-6.012-3.234-13.166-1.195-19.5 3.59-7.328 9.304-10.998 16.758-13.875 12.501-2.37 24.287-1.341 34.883 6.09z" class="H"/><g class="E"><use xlink:href="#B" x="244"/><path d="M73.445 1291.715c3.84 3.145 5.912 5.536 7.555 10.285l-6.75 3.5-1.922 1.012C68.88 1308.272 66.952 1309 63 1309v-2l-2.375-.937C58 1305 58 1305 56 1304c-1.643-.121-3.291-.175-4.937-.187l-2.652-.043c-2.673.064-2.673.064-5.41 2.23-.667 2.457-.667 2.457 0 5 3.915 2.95 8.113 3.912 12.813 4.938 9.443 2.241 16.634 4.603 22.188 13.063 3.09 5.608 4.183 11.683 3 18-3.432 7.919-9.104 11.669-16.625 15.25-10.24 3.234-22.532 3.164-32.375-1.25-6.463-3.374-11.343-7.632-15-14v-2l7.25-3.562 2.066-1.037c5.166-2.483 5.166-2.483 7.811-2.062 2.108.745 3.342 1.671 4.998 3.162 3.777 3.284 5.353 3.655 10.25 3.688l2.898.043c2.757-.233 4.376-.821 6.727-2.23v-5c-5.105-2.182-10.092-4.087-15.5-5.375-8.687-2.298-15.227-6.339-20.441-13.695-2.841-5.178-2.72-11.189-2.059-16.93 2.074-6.496 5.9-10.425 11.703-13.848 12.861-6.452 29.179-4.547 40.742 3.563z"/></g><path d="M451.25 1510.625l3.027-.074c10.28-.04 18.148 3.533 25.723 10.449 3 4.125 3 4.125 3 7l-5.625 2.438-3.164 1.371c-3.156 1.171-5.851 1.967-9.211 2.191-1.766-.996-1.766-.996-3.25-2.437-3.751-3.006-6.817-3.09-11.516-3.031-2.669.56-3.615 1.302-5.234 3.469-.401 2.583-.401 2.583 1 5 4.514 2.214 8.986 3.221 13.875 4.313 7.99 1.932 15.641 5.513 20.125 12.688l1.75 2.563c2.095 5.761 2.58 12.056.301 17.852-4.746 7.995-12.249 12.149-21.051 14.586-7.919.938-16.164.306-24-1v-2l-6-1v-2l-1.77-.262c-2.848-.943-3.979-2.283-5.918-4.551l-1.824-2.082c-1.482-2.096-2.066-3.597-2.488-6.105l7.25-3.562 2.066-1.037c5.147-2.474 5.147-2.474 7.804-2.111 1.88.711 1.88.711 3.63 2.648 4.047 3.71 9.257 4.156 14.563 4.313 3.775.051 3.775.051 6.688-2.25.25-2.584.25-2.584 0-5-4.498-2.483-8.828-3.762-13.812-4.812-10.578-2.469-17.32-6.883-23.187-16.187-2.43-4.859-1.575-12.082-.062-17.187 2.444-5.672 7.857-10.317 13.384-12.896 4.566-1.563 9.144-1.286 13.928-1.292z" class="M"/><path d="M1874.32 1049.684c10.115-.532 18.934 1.965 27.078 8.133 3.07 2.901 4.819 4.969 5.602 9.184l-6.75 3.563-1.922 1.037c-4.735 2.441-4.735 2.441-7.586 2.244-1.742-.844-1.742-.844-4.867-2.906-4.376-2.605-8.908-2.684-13.875-1.937l-3 2c-.25 2.584-.25 2.584 0 5 5.584 3.087 11.224 4.512 17.367 6.018 8.1 2.107 13.899 6.043 18.633 12.982 2.254 5.43 2.993 11.192 2 17-3.414 7.92-9.096 11.608-16.562 15.25-11.303 3.478-23.507 2.335-34.211-2.504-5.575-3.072-10.453-6.859-13.227-12.746 1-3 1-3 4.02-4.641l3.793-1.609 1.908-.852c2.591-1.099 4.695-1.943 7.533-1.727 1.912.907 3.3 1.913 4.871 3.328 3.945 3.431 5.669 3.656 10.813 3.688l3.215.043c3.05-.015 3.05-.015 5.848-2.23.25-2.584.25-2.584 0-5-5.472-2.322-10.894-4.283-16.625-5.875-9.067-2.731-15.543-7.837-20.484-15.945-2.064-5.052-1.621-11.273-.309-16.496 2.483-5.794 6.979-9.663 12.418-12.684 4.705-1.629 9.397-1.847 14.32-2.316z" class="B"/><path d="M1040.313 1515.25c5.349 4.041 9.782 8.616 12.688 14.75.035 1.945.035 1.945-1 4-2.507 1.29-4.808 2.298-7.437 3.25l-2.104.813c-5.106 1.938-5.106 1.938-7.459 1.938l-2.637-5.176c-2.47-3.306-5.234-4.642-9.266-5.293-6.732-.214-6.732-.214-12.66 2.531-4.621 5.569-5.98 10.726-5.875 17.875l.016 2.126c.189 6.437 1.564 10.71 5.87 15.573 3.009 2.645 6.17 2.525 9.988 2.551l2.871.043c2.837-.243 4.351-.632 6.691-2.23 1.534-1.927 1.534-1.927 2.75-4.125l1.297-2.195.953-1.68c4.2 1.096 8.296 2.386 12.375 3.875l2.586.93c2.039 1.195 2.039 1.195 3.012 3.023.06 4.799-4.016 8.68-6.973 12.172-9.011 8.6-18.538 9.602-30.479 9.549-7.546-.198-12.975-1.092-18.521-6.549l-2.215-2.121c-8.576-8.949-12.196-18.935-12.098-31.254l.017-2.252c.24-10.903 3.646-19.342 11.147-27.35 12.243-11.462 32.219-14.317 46.461-4.773z" class="I"/><path d="M149.375 1290.75c4.649 3.985 9.263 8.506 11.625 14.25v3l-17 7-4-5c-3.965-4.198-5.96-5.188-11.75-5.375-5.297.039-5.297.039-9.812 2.5-4.721 5.568-5.973 10.158-5.875 17.25l.021 2.284c.207 7.146 1.893 11.186 6.417 16.841 4.87 2.435 9.677 2.337 15 1.5 4.355-2.068 6.834-5.788 9-10 6.419 1.736 12.138 3.852 18 7-1.56 6.76-5.628 12.538-11.215 16.617-10.633 6.143-23.409 7.37-35.285 4.258-9.478-3.429-16.551-10.638-20.824-19.676-3.994-11.029-4.866-24.639-.738-35.762 5.004-10.065 12.538-17.222 23.02-21.176 11.437-3.424 23.015-.906 33.418 4.488zm293.813-.562c5.415 3.624 10.296 8.741 12.813 14.813v3l-7.875 3.5-2.262 1.012-2.168.957-2 .889C440 1315 440 1315 438 1315c-1.333-1.95-2.439-3.99-3.586-6.055-1.672-2.3-2.739-3.011-5.414-3.945-4.642-.614-9.663-1.057-14.012.91-3.843 3.01-6.538 7.188-7.291 12.039-.136 2.152-.165 4.271-.135 6.426l.021 2.284c.207 7.146 1.893 11.186 6.417 16.841 4.87 2.435 9.677 2.337 15 1.5 4.355-2.068 6.834-5.788 9-10 6.419 1.736 12.138 3.852 18 7-1.877 7.509-6.542 13.79-13.051 17.969-9.964 5.272-22.617 5.715-33.449 2.906-9.062-3.269-15.313-9.787-19.723-18.211-5.011-10.813-5.95-25.131-1.812-36.465 4.902-10.415 11.894-17.501 22.738-21.473 11.103-3.512 22.355-2.294 32.484 3.461z" class="C"/><path d="M1790 1485v27h17v17h-16l.208 16.016.063 5.447.12 7.834.004 2.456c.094 3.619.279 5.808 2.469 8.753 2.709 1.895 4.604 2.088 7.887 2.244l5.25.25v16c-18.833 3.139-18.833 3.139-26.812-.164A30.05 30.05 0 0 1 1775 1583l-2.375-2.437c-3.896-6.144-3.903-12.381-3.82-19.434l.009-2.795.062-8.771.027-5.975L1769 1529h-13v-17h13v-17l6.75-3.875 2.104-1.21c8.581-4.915 8.581-4.915 12.146-4.915z" class="L"/><path d="M620 1512h22c2.5 5.624 4.674 10.674 6.508 16.449l.641 2.003 1.976 6.235 1.34 4.205 2.454 7.723 2.222 6.7C658 1558 658 1558 658 1560h2l.305-2.913c.677-4.703 2.23-9.024 3.82-13.486l.93-2.653 1.947-5.511 2.982-8.472 1.891-5.363.903-2.569c2.106-5.916 2.106-5.916 3.222-7.032 1.635-.087 3.273-.107 4.91-.098l2.998.01 3.154.025 3.166.014L698 1512c-.672 4.323-2.176 8.137-3.887 12.133l-.891 2.115-1.911 4.521-5.077 12.068-1.054 2.516-11.118 27.399-.934 2.345L668 1588h-18l-8.68-20.834-2.493-5.97-10.613-25.744-2.08-5.076-3.029-7.41-.947-2.292c-1.23-3.037-2.159-5.364-2.159-8.673z" class="D"/><path d="M351 1052h23l2.75 8.875c1.852 5.911 3.765 11.726 6.172 17.438 2.596 6.47 4.787 13.105 7.078 19.688l.77-2.344 1.043-3.156 1.02-3.094c1.038-3.026 2.151-6.014 3.282-9.006 1.944-5.269 3.744-10.591 5.573-15.9l1.26-3.648L406 1052h23c-3.375 10.124-3.375 10.124-5.065 14.234l-1.144 2.795-1.212 2.936-1.282 3.128-4.046 9.845-5.297 12.902-1.288 3.142L399 1128h-18l-26.25-64.437-1.208-2.982-1.057-2.639-.884-2.197C351 1054 351 1054 351 1052z" class="C"/><path d="M2462 1259v28h17v16h-16v40h2l2 3c2.886.585 2.886.585 6.125.688l5.875.313v15c-7.715 2.572-17.288 3.916-25.125.75-6.668-4.059-10.386-8.165-12.419-15.79-.64-4.149-.579-8.226-.554-12.417l.004-2.736.031-8.619.014-5.857.049-14.33h-13v-16h13v-17l6.625-3.812 2.049-1.183C2460.147 1259 2460.147 1259 2462 1259z" class="J"/><path d="M1947 1025l1 26 15 1v16h-16l.208 15.479.063 5.261.12 7.581.004 2.359c.137 5.162 1.116 8.273 4.606 12.321 3.035.722 3.035.722 6.25.375l5.75-.375v17c-8.835 1.472-20.464 3.309-28.461-1.746-6.021-4.905-8.978-11.021-9.799-18.676-.084-2.554-.079-5.09-.033-7.645l.013-2.786.093-8.71.041-5.947.146-14.49h-13v-17h13v-17l8.25-4.5 2.355-1.301 2.285-1.23 2.095-1.143C1943 1025 1943 1025 1947 1025z" class="B"/><path d="M1886 1259v28h17v16h-17l.262 15.533.084 5.281.142 7.603.019 2.374c.134 5.001.882 8.597 4.492 12.208a131.78 131.78 0 0 0 6.063.063L1903 1346v17c-9.577 1.596-20.256 2.928-29-2-5.573-5.297-8.786-10.335-9.082-18.155l-.016-7.618.004-2.799.031-8.802.014-5.988L1865 1303h-13v-16h13v-17l6.625-3.812 2.049-1.183C1884.147 1259 1884.147 1259 1886 1259zm-187 1v27h17v16h-17l.208 15.479.063 5.261.12 7.581.004 2.359c.137 5.162 1.116 8.273 4.606 12.321 3.035.722 3.035.722 6.25.375l5.75-.375v17c-9.577 1.596-20.256 2.928-29-2-5.976-5.68-8.773-10.851-9.082-19.206l-.016-7.447.004-2.728.031-8.557.014-5.83L1678 1303h-13v-16h13l-.352-3.508c-.854-12.052-.854-12.052 2.297-15.816 2.631-1.533 5.197-2.631 8.055-3.676l4.438-2.375C1696 1260 1696 1260 1699 1260zm-100 0v27h17v16h-17l.208 15.479.063 5.261.12 7.581.004 2.359c.137 5.162 1.116 8.273 4.606 12.321 3.035.722 3.035.722 6.25.375l5.75-.375v17c-9.577 1.596-20.256 2.928-29-2-5.976-5.68-8.773-10.851-9.082-19.206l-.016-7.447.004-2.728.031-8.557.014-5.83L1578 1303h-13v-16h13l-.352-3.508c-.854-12.052-.854-12.052 2.297-15.816 2.631-1.533 5.197-2.631 8.055-3.676l4.438-2.375C1596 1260 1596 1260 1599 1260z" class="D"/><path d="M1168 1260v27h17v16h-17l.208 15.479.063 5.261.12 7.581.004 2.359c.137 5.162 1.116 8.273 4.606 12.321 3.035.722 3.035.722 6.25.375l5.75-.375v17c-9.577 1.596-20.256 2.928-29-2-5.976-5.68-8.773-10.851-9.082-19.206l-.016-7.447.004-2.728.031-8.557.014-5.83L1147 1303h-13v-16h13l-.352-3.508c-.854-12.052-.854-12.052 2.297-15.816 2.631-1.533 5.197-2.631 8.055-3.676l4.438-2.375C1165 1260 1165 1260 1168 1260z" class="N"/><path d="M222 1484v28h16v16h-16l.262 15.479.084 5.261.142 7.581.019 2.359c.128 4.773.776 8.228 3.492 12.321 3.17.941 3.17.941 6.688.875L239 1572v16c-8.94 1.49-21.007 3.475-29-2-5.516-4.879-8.61-9.857-9.173-17.286-.057-2.604-.052-5.2-.022-7.804l.009-2.862.062-8.985.027-6.119L201 1528h-13v-16h13l-.352-3.508c-.855-12.047-.855-12.047 2.262-15.781 2.637-1.525 5.244-2.629 8.09-3.711l5-2.875c3.742-2.125 3.742-2.125 6-2.125z" class="C"/><path d="M378 1480h22l.076 8.062.263 26.307.158 15.957.156 15.386.056 5.884.086 8.211.017 2.483c-.294 3.656-.294 3.656 1.188 6.709l8 1v18c-4.236 2.118-6.293 2.27-10.937 2.25l-3.652.016c-5.48-.427-8.518-1.865-12.098-6.016l-1.762-1.984c-3.797-5.547-3.832-11.109-3.778-17.576l-.001-2.781.033-9.057.009-6.297.049-16.542.04-16.892L378 1480z" fill="#0c0c0c"/><path d="M1068 1480h21l.076 8.062.263 26.307.158 15.957.156 15.386.056 5.884.086 8.211.017 2.483c-.294 3.656-.294 3.656 1.188 6.709l8 1v18c-4.009 1.002-7.317 1.167-11.437 1.188l-3.934.043c-4.353-.276-7.184-.875-10.395-3.887l-1.484-1.844-1.516-1.844c-2.977-3.995-2.367-8.095-2.348-12.879v-2.897l.016-9.512.004-6.583.025-17.351.02-17.695L1068 1480z" class="I"/><path d="M889 1020h21l.076 8.062.263 26.307.158 15.957.156 15.386.056 5.884.086 8.211.017 2.483c-.294 3.656-.294 3.656 1.188 6.709l8 1v17c-7.236 2.412-15.294 4.065-22.582.867-4.265-3.023-6.423-5.994-8.418-10.867-.413-3.2-.38-6.363-.341-9.585l-.001-2.87.049-9.35.013-6.499.074-17.074.06-17.435L889 1020z" class="B"/><path d="M1877 1514c-.613 2.821-1.472 5.138-2.848 7.672l-1.084 2.012-1.131 2.066-1.143 2.113L1868 1533l-3.246-.48c-7.719-1.121-7.719-1.121-15.066 1.168-3.827 3.293-5.677 6.416-6.687 11.313-.11 1.495-.175 2.994-.205 4.493l-.06 2.669-.051 2.854-.063 2.942-.183 9.292-.131 6.305L1842 1589h-21v-77h22l1 8 1.375-2.187c9.49-10.168 19.968-9.264 31.625-3.812z" class="G"/><path d="M1337 1514c-.613 2.821-1.472 5.138-2.848 7.672l-1.084 2.012-1.131 2.066-1.143 2.113L1328 1533l-3.246-.48c-7.719-1.121-7.719-1.121-15.066 1.168-3.828 3.294-5.674 6.416-6.687 11.313-.11 1.465-.175 2.933-.205 4.401l-.06 2.608-.051 2.788-.063 2.875-.183 9.078-.131 6.16L1302 1588h-21v-76h22l1 8 1.563-2.25c9.02-10.177 20.109-8.95 31.438-3.75z" class="H"/><path d="M582 1054c-1.606 4.243-3.577 8.27-5.625 12.313l-.984 1.955L573 1073l-2.887-.289-3.801-.336-3.762-.352c-3.527-.023-5.473.327-8.551 1.977-5.888 6.225-6.313 11.921-6.414 20.113l-.059 2.938-.152 9.261-.117 6.291L547 1128h-21v-76h21l1 9 2.5-3.25c9.015-10.384 19.894-9.281 31.5-3.75zm-237 0c-1.541 4.059-3.378 7.895-5.375 11.75l-1.773 3.484C336 1072 336 1072 333.961 1072.953 332 1073 332 1073 329 1072c-4.505-.25-8.029-.254-12 2-5.888 6.225-6.313 11.921-6.414 20.113l-.059 2.938-.152 9.261-.117 6.291L310 1128h-21v-76h21l1 9 2.688-3.312c8.887-10.351 19.884-9.032 31.313-3.687z" class="O"/><path d="M1835 1054c-1.606 4.243-3.577 8.27-5.625 12.313l-.984 1.955L1826 1073l-2.887-.289-3.801-.336-3.762-.352c-3.527-.023-5.473.327-8.551 1.977-5.888 6.225-6.313 11.921-6.414 20.113l-.059 2.938-.152 9.261-.117 6.291L1800 1128h-21v-76h21l1 9 2.438-3.25c8.98-10.392 20.172-9.077 31.563-3.75z" class="E"/><path d="M847 1514c-.538 4.986-2.117 8.518-4.562 12.875l-1.941 3.492L839 1533l-3.246-.48c-7.719-1.121-7.719-1.121-15.066 1.168-3.828 3.294-5.674 6.416-6.687 11.313a80.84 80.84 0 0 0-.205 4.401l-.06 2.608-.051 2.788-.063 2.875-.183 9.078-.131 6.16L813 1588h-21v-76h21l1 9 2.063-2.75c8.517-10.235 19.956-9.944 30.938-4.25zm408-225c-1.392 4.627-3.295 8.647-5.625 12.875l-1.914 3.492L1246 1308l-3.246-.48c-7.646-1.084-7.646-1.084-15.004.98-4.714 4.286-6.893 9.078-7.296 15.447l-.063 5.459-.05 2.925-.091 9.169-.09 6.25-.16 15.25h-21v-76h21l1 9h2l.23-1.801c1.034-2.956 2.466-3.721 5.082-5.387l2.363-1.543c8.411-4.594 16.181-2.008 24.324 1.73z" class="N"/><path d="M2308 1287h20v76h-20v-76z" class="D"/><path d="M1351 1287h20v76h-20v-76z" fill="#010301"/><path d="M598 1287h20v76h-20v-76z" fill="#010101"/><path d="M177 1287h20v76h-20v-76z"/><path d="M2258 1304c4.772 1.619 7.259 3.79 10 8 2.902 7.374 3.351 15.915.813 23.5-2.575 4.973-5.605 8.365-10.812 10.5-5.802.764-11.584.832-16.496-2.648-4.503-4.047-6.476-7.505-6.949-13.629l-.117-4.785-.045-2.327c.101-5.628 1.412-8.973 4.607-13.611 6.127-5.543 10.928-5.581 19-5zm-328.742 225.813c4.913 3.063 7.38 7.666 8.742 13.188.815 7.566.52 14.202-3 21-3.147 3.711-6.156 6.643-11.113 7.266-11.641-.083-11.641-.083-16.137-4.453-3.666-5.892-5.315-10.789-5.25-17.75l.015-2.128c.258-7.666 2.776-11.225 7.985-16.435 5.905-2.531 12.644-2.887 18.758-.687z" fill="#cdedcd"/><path d="M1771.172 1304.543c4.642 2.187 6.9 5.961 8.949 10.539 2.136 7.093 2.021 15.353-.996 22.199-2.483 3.793-6.09 6.701-10.125 8.719-5.745.581-11.597.916-16.496-2.508-5.588-5.545-6.987-11.996-7.066-19.68.104-5.974.66-10.172 4.563-14.812 6.281-5.683 12.9-6.525 21.172-4.457z" fill="#ceeece"/><path d="M536 1529c5.345 2.577 8.659 6.252 11.25 11.563 1.665 7.63 2.123 16.619-2.25 23.438-3.075 3.253-6.515 6.764-11.137 7.203-5.791.106-9.816-.276-14.863-3.203-5.962-6.123-6.441-12.433-6.436-20.61.195-7.743 2.538-11.562 7.999-16.89 5.142-2.244 9.915-2.251 15.438-1.5z" fill="#fafafa"/><path d="M1259.938 1070.5c5.343 4.362 7.579 10.175 8.336 16.945.276 7.276-1.144 12.517-5.273 18.555-4.993 4.761-8.439 5.376-15.176 5.262-4.169-.386-6.835-1.296-9.824-4.262-4.458-5.604-5.443-11.294-5.5-18.25l-.019-2.04c.155-6.06 2.036-9.998 5.957-14.522 5.46-4.661 15.121-4.822 21.5-1.687z" class="K"/><path d="M1433 1304c5.324 2.457 9.069 6.347 11.375 11.73 1.644 5.968 1.55 11.966-1 17.645-2.492 4.335-5.882 7.379-10.375 9.625-6.466.762-11.913.606-17.273-3.332-4.795-4.632-7.003-9.578-7.289-16.23.354-6.34 1.846-10.806 6.445-15.262 5.663-4.354 11.095-5.709 18.117-4.176z" fill="#cfefcf"/><path d="M2103 1529c4.863 2.251 8.99 6.058 11.371 10.895 1.996 6.682 1.386 13.285-1.434 19.605-2.685 4.679-4.86 6.638-9.937 8.5-5.877.9-11.925.241-17-3-5.41-5.645-7.387-10.599-7.273-18.371.629-6.048 3.401-10.114 7.898-14.066 5.171-4.143 9.832-4.481 16.375-3.562zm69-224c5.1 2.318 8.408 6.087 11 11 .706 3.009.764 5.857.688 8.938l-.035 2.41c-.234 5.426-1.034 9.305-4.961 13.304-5.084 4.051-9.49 5.075-15.934 4.891-4.882-.961-7.702-3.76-10.758-7.543-3.939-6.154-3.777-12.857-3-20 1.402-5.216 4.234-9.237 8.809-12.152 4.629-1.791 9.346-1.563 14.191-.848z" fill="#cceccc"/><path d="M1649.188 1070.625c4.806 2.617 7.097 6.227 8.813 11.375.647 8.257.823 15.959-4 23-5.018 4.779-8.483 5.352-15.238 5.281-5.126-.522-7.747-3.157-11.074-6.844-4.264-6.159-3.483-15.196-2.687-22.437 1.547-5.102 4.299-7.891 8.875-10.5 5.447-2.285 9.909-2.252 15.313.125z" class="F"/><path d="M64.414 1530.816c4.637 2.492 7.138 5.687 8.957 10.598 1.967 8.088 1.346 15.271-2.836 22.516-2.422 3.267-4.584 5.022-8.535 6.07-5.202.712-9.487.616-14.375-1.375-5.348-5.348-7.907-11.111-8.187-18.687.348-7.309 2.467-12.371 7.063-18 5.068-3.692 12.244-3.039 17.914-1.121z" class="K"/><path d="M977.375 1071.188c4.855 3.352 7.348 7.067 8.625 12.813.69 7.889.336 14.619-4.559 21.047-3.793 3.943-6.956 5.481-12.441 5.828-5.519-.342-8.642-1.929-12.441-5.902-5.311-6.722-5.487-13.615-4.559-21.973 1.583-5.395 4.222-8.937 9-12 5.436-1.812 10.982-1.71 16.375.188z" class="F"/><path d="M630.063 1070.063c4.568 3.013 8.19 6.696 9.938 11.938.643 8.203.935 16.068-4 23-2.825 3.255-5.422 4.743-9.687 5.438-5.919.257-9.774-.342-14.312-4.437-5.714-6.331-5.502-12.685-5.336-20.805.227-4.26 1.023-7.357 3.719-10.746 5.84-5.234 12.1-7.017 19.68-4.387z" class="K"/><path d="M2191.25 1070.75c5.441 3.004 7.028 6.357 8.75 12.25.856 7.933.544 15.235-4 22-5.015 4.777-8.486 5.367-15.242 5.27-4.724-.462-6.958-2.493-10.227-5.719-3.758-4.645-4.021-9.358-4.094-15.113l-.044-2.182c.104-5.467 1.497-8.754 4.607-13.255 6.442-4.996 12.606-6.84 20.25-3.25z" class="F"/><path d="M244.875 1071.125c4.51 3.979 7.874 7.675 8.363 13.914.173 8.345-.034 15.117-5.676 21.617-4.239 3.668-8.503 4.046-13.98 3.754-5.207-.827-8.248-3.63-11.457-7.598-3.693-6.368-3.207-14.729-2.125-21.812 1.544-4.646 3.781-7.071 7.625-10 5.719-1.694 11.634-2.073 17.25.125z" fill="#fafafa"/><path d="M1603 1530c4.628 2.427 7.255 5.448 9.5 10.125 1.129 8.748 2.146 17.504-3.5 24.875-3.286 3.052-5.565 4.883-10.062 5.25-5.931-.377-11.035-1.396-15.375-5.625-3.052-5.127-3.857-9.064-3.875-15.062l-.051-3.871c.516-5.239 2.467-9.373 6.238-13.066 5.06-4.05 10.998-3.878 17.125-2.625z" fill="#ceefce"/><path d="M2497 1339h23c-.798 5.583-1.338 7.938-3.828 12.566-1.478 3.07-2.558 6.214-3.672 9.434-1.585 4.57-3.31 8.791-5.586 13.047-1.789 3.822-2.787 7.896-3.914 11.953h-14c0-7.875 0-7.875.734-11.467l.485-2.425.53-2.542.538-2.66 1.712-8.343 1.156-5.686L2497 1339z" fill="#080808"/><path d="M44 1040l10.063-.25 3.129-.11c6.16-.074 9.805.695 14.808 4.36 1.986 3.972 1.536 8.681 1 13-1.635 3.587-3.966 5.544-7.594 7.145-4.339 1.09-8.333 1.072-12.781.98L44 1065v-25z" class="F"/><path d="M613 1251c3.146 1.68 5.266 3.998 7.375 6.875 1.361 4.628 1.175 8.589-1 12.875-2.21 3.451-4.438 4.938-8.375 6.25-4.246.531-6.409.296-10.25-1.625-4.104-3.545-5.518-6.516-6.187-11.875.643-5.144 2.732-8.038 6.625-11.375 4.016-1.606 7.553-1.935 11.813-1.125z" fill="#070707"/><path d="M2322 1251c4.364 2.223 7.095 4.45 9 9 .645 4.974-.085 8.337-2.734 12.488-2.809 3.355-6.065 4.337-10.266 4.949-5.185-.756-8.059-3.323-11.375-7.25-1.951-3.828-2.232-5.942-1.625-10.187 3.763-7.247 8.74-10.458 17-9z" class="L"/><path d="M1366 1251c3.099 1.469 5.087 3.151 7 6 1.615 4.844 1.746 9.321-.562 13.938-3.353 4.212-6.139 5.727-11.437 6.5-5.185-.756-8.059-3.323-11.375-7.25-1.951-3.828-2.232-5.942-1.625-10.187 3.967-7.639 9.531-10.72 18-9z" class="G"/><path d="M193 1252c3.007 1.791 4.527 3.247 6.375 6.188.913 4.11.774 7.755-.375 11.813-2.523 3.204-5.081 5.732-9 7-4.186.465-6.461.269-10.25-1.625-4.104-3.545-5.518-6.516-6.187-11.875.533-4.265 1.636-6.256 4.438-9.5 4.919-3.546 9.321-3.54 15-2z" class="B"/><path d="M2171 1564c3.87 2.362 6.554 4.662 8 9 .751 7.631.751 7.631-2.312 11.375-3.493 3.412-5.659 4.957-10.5 5.188-3.105-.041-4.656-.156-7.141-2.059-2.943-3.436-4.92-6.184-5.359-10.754.372-4.462 1.451-6.347 4.313-9.75 3.878-3.232 8.083-4.171 13-3z" fill="#0c0c0c"/><path d="M323.641 1556.707l3.242.029 3.367.076 3.414.041L342 1557c-.651 4.364-1.248 7.462-4 11-1.65.707-3.316 1.379-5 2l-1 3c-12.288.898-12.288.898-16.078-1.09-2.549-2.762-2.922-4.909-2.984-8.598 1.844-5.75 4.937-6.697 10.703-6.605z" fill="#efefef"/><path d="M468.859 1096.609l3.379.039 3.512.102 3.559.055L488 1097c-.895 6.02-2.467 8.966-7 13-4.78 2.694-8.538 3.596-14 3-3.981-1.577-5.607-2.41-8-6-.454-3.557-.553-5.277 1.657-8.167 2.955-2.312 4.486-2.299 8.202-2.224z" fill="#f4f4f4"/><path d="M1301.313 1331.75l3.4.055 8.287.195c-.729 6.009-2.532 9.024-7 13-4.78 2.694-8.538 3.596-14 3-3.981-1.577-5.607-2.41-8-6-.437-2.937-.437-2.937 0-6 4.518-5.592 10.762-4.449 17.313-4.25z" fill="#cae9ca"/><path d="M512.23 1303.727c3.808 1.997 6.132 4.323 7.77 8.273v5h-32c1.114-5.572 2.595-9.252 7.273-12.652 5.162-2.551 11.508-2.396 16.957-.621z" fill="#eee"/><path d="M2005.859 1096.609l3.379.039 3.512.102 3.559.055 8.691.195c-.895 6.02-2.467 8.966-7 13-4.77 2.688-8.546 3.606-14 3-2.75-1.312-2.75-1.312-5-3l-1.812-1.312c-1.863-2.647-1.637-4.544-1.187-7.687 2.995-3.907 5.019-4.489 9.859-4.391z" fill="#f3f3f3"/><path d="M911.227 1303.73c3.813 1.988 6.136 4.32 7.773 8.27v5h-32c1.133-5.664 2.28-8.369 6.438-12.312 5.639-2.671 11.814-2.917 17.789-.957z" fill="#eee"/><path d="M256 1303c3.863 1.528 6.92 3.342 9.211 6.859C266 1312 266 1312 266 1317h-32c1.114-5.57 2.592-9.257 7.277-12.648 4.767-2.366 9.533-2.077 14.723-1.352z" fill="#efefef"/><path d="M2045.242 1303.719c3.793 2.019 6.12 4.331 7.758 8.281v5h-32c.966-4.829 1.335-5.871 4.438-9.25l1.871-2.078c4.389-4.339 12.358-3.74 17.934-1.953z" fill="#c4e1c4"/><g fill="#cbeacb"><use xlink:href="#C"/><use xlink:href="#C" x="-193"/></g><path d="M1152 1528c3.666 1.58 6.088 3.731 8.438 7 .563 2 .563 2 .563 7h-31c1.024-7.169 1.229-8.526 6.418-12.668 5.025-2.592 10.125-2.332 15.582-1.332z" fill="#c4e2c4"/><path d="M748 1528c3.43 1.782 5.937 3.715 8 7l1 7h-31c1.023-7.16 1.222-8.536 6.422-12.66 5.072-2.636 10.08-2.537 15.578-1.34z" fill="#c5e3c5"/><path d="M1734 1068c4.719 1.601 7.371 3.753 10 8v5h-31c1.042-6.254 1.489-7.133 6-11 4.678-3.118 9.521-2.464 15-2z" class="F"/><path d="M846.234 1068.723c3.8 2.006 6.094 4.345 7.766 8.277v4h-31c.952-5.711 1.221-7.113 5-11 5.219-3.288 12.478-3.139 18.234-1.277z" class="K"/><path d="M1656 1020h22v108h-22l-1-9h2v8h20v-106h-19v41l-3-1 1-41z" fill="#6e6e6e"/><path d="M1949 1023v27h15v19h-15v38c-2-2-2-2-2.227-5.624l.032-4.666.009-2.48.062-7.856.027-5.32L1947 1068h16v-16l-9.783.09c-1.739.007-3.478-.04-5.217-.09-1-1-1-1-1.114-3.5l.016-3.285.01-3.545.025-3.732.014-3.744.049-9.193-2-1c1-1 1-1 4-1z" fill="#adadad"/><path d="M1974 1512h22l1 7 5-5 2 1-3.375 4-1.898 2.25L1997 1523h-2v-10h-20v75h20v1h-21v-77z" fill="#4c5a4d"/><path d="M2092 1069l2 1-1.496 1.426-1.941 1.887-1.934 1.863c-2.66 2.979-2.764 5.743-2.834 9.571l-.06 2.911-.051 3.135-.063 3.216-.183 10.179-.131 6.896L2085 1128h-2l-.165-18.787-.062-6.384-.067-9.205-.047-2.858c-.002-7.317.921-13.061 5.965-18.705L2091 1070l1-1z" fill="#bfbfbf"/><path d="M1550 1069l2 1-1.496 1.426-1.941 1.887-1.934 1.863c-2.66 2.979-2.764 5.743-2.834 9.571l-.06 2.911-.051 3.135-.063 3.216-.183 10.179-.131 6.896L1543 1128h-2l-.165-18.787-.062-6.384-.067-9.205-.047-2.858c-.002-7.317.921-13.061 5.965-18.705L1549 1070l1-1z" fill="#c9c9c9"/><path d="M822 1533c-1.309 2.921-2.756 4.756-5 7-.929 2.788-1.149 4.582-1.205 7.471l-.06 2.729-.051 2.936-.063 3.014-.183 9.537-.131 6.463L815 1588h-2l-.165-17.932-.062-6.093-.067-8.788-.047-2.725c-.002-6.817.925-12.536 5.402-17.962C820 1533 820 1533 822 1533z" fill="#b5cbb4"/><path d="M1656 1020h21v1h-19v41l-3-1 1-41z" fill="#414141"/><path d="M1507 1255h2l.592 16.553.207 5.634.275 8.087.113 2.554c.061 2.366.061 2.366-.187 6.173l-3 2v-41z" fill="#adc2ad"/><path d="M1170 1258v28h15v1h-17v-27l-2-1c1-1 1-1 4-1z" fill="#9eb49d"/><path d="M1601 1258v28h15v1h-17v-27l-2-1c1-1 1-1 4-1z" fill="#99ae99"/><path d="M1701 1258v28h15v1h-17v-27l-2-1c1-1 1-1 4-1z" fill="#98ac98"/><path d="M1975 1512h21l1 7 5-5 2 1-3.375 4-1.898 2.25L1997 1523h-2v-10h-20v-1z" fill="#485448"/><path d="M1779 1051h23l1 8-3 3v-10h-21v-1z" fill="#a4a4a4"/><path d="M1418 1306l2 1-1.461 1.355-1.914 1.832-1.898 1.793c-3.698 4.326-3.964 8.272-3.852 13.832l.055 3.52.07 2.668c-2.994-4.491-2.583-8.735-2-14 1.653-5.398 4.261-8.841 9-12z" fill="#90a490"/><path d="M1000 1515l2 1-11 11-2-1 3.25-3.812 1.828-2.145c1.846-1.962 3.721-3.5 5.922-5.043z" fill="#202920"/><path d="M1899 1517c-1.448 3.444-3.277 5.361-6.125 7.75l-2.195 1.859L1889 1528c0-3 0-3 1.68-5.043l2.195-2.145 2.18-2.168C1897 1517 1897 1517 1899 1517z" fill="#1e261e"/><path d="M1708 1055l2 1-11 11-1-2 3.313-3.875 1.863-2.18C1705 1057 1705 1057 1708 1055z" fill="#292929"/><path d="M1402 1290l2 1-11 11c0-3.524.551-4.015 2.813-6.562l1.582-1.816C1399 1292 1399 1292 1402 1290z" fill="#1c251c"/><path d="M1228 1056l2 1-10 10-2-1 3.313-3.875 1.863-2.18C1225 1058 1225 1058 1228 1056z" fill="#2c2c2c"/><path d="M883 1290l2 1-10 10-2-1 3.313-3.875 1.863-2.18C880 1292 880 1292 883 1290z" fill="#272727"/><path d="M721 1515l2 1-10 10-2-1c6.15-7.483 6.15-7.483 10-10z" fill="#2c372d"/><path d="M1014 1530c-1.453 3.391-3.413 5.413-6 8l-1 3h-2c1.159-4.531 3.483-11 9-11z" fill="#acc4ac"/><use xlink:href="#D" fill="#b8b8b8"/><use xlink:href="#D" x="-542" fill="#c1c1c1"/><path d="M1125 1515l2 1-9 9-2-1c2.79-3.487 5.252-6.502 9-9z" fill="#2f3b2f"/><path d="M1505 1514c-1.556 3.819-3.956 6.26-7 9h-2v-2h2l.813-1.812c2.816-5.187 2.816-5.187 6.188-5.187z" fill="#212821"/><path d="M822 1513l2 1-9 9-2-1 2.813-3.375 1.582-1.898C819 1515 819 1515 822 1513z" fill="#252e25"/><path d="M822 1533c-1.309 2.921-2.756 4.756-5 7l-1 3h-2c1.162-4.259 2.748-10 8-10z" fill="#a6bea6"/><path d="M2005 1530c-1.528 3.438-3.502 6.19-6 9h-2c1.31-3.93 3.25-9 8-9z" fill="#adc5ad"/><path d="M507 1517l2 1-10 10c0-3.977 1.38-5.089 4-8l4-3z" fill="#2d2d2d"/><path d="M2002 1514l2 1-3.375 4-1.898 2.25L1997 1523h-2v-2h2l.813-1.812c1.172-2.16 2.381-3.545 4.188-5.187z" fill="#262e26"/><path d="M1030 1054l2 1-9 9c0-3.956 1.405-5.109 4-8l3-2z" fill="#2c2c2c"/><path d="M1574 1516c-1.441 3.362-3.248 5.592-6 8h-2c1.517-3.54 3.753-8 8-8z" fill="#222b23"/><path d="M1701 1515c-1.441 3.362-3.248 5.592-6 8h-2c1.517-3.54 3.753-8 8-8z" fill="#1d251d"/><path d="M1273 1320l2 1-3.375 3.5-1.898 1.969C1268 1328 1268 1328 1266 1328c1.491-3.795 3.757-5.61 7-8z" fill="#1d271e"/><path d="M2017 1290l2 1-8 8-2-1c2.416-3.192 4.68-5.747 8-8z" fill="#222b22"/><path d="M2159 1288l2 1-8 8-2-1c4.625-5.75 4.625-5.75 8-8z" fill="#232c23"/><path d="M302 1546c-1.583 4.274-4.506 6.265-8 9 1.31-3.93 3.25-9 8-9z" fill="#2a2a2a"/><path d="M2088 1531l2 1-2.875 3.5-1.617 1.969L2084 1539h-2c1.443-3.366 3.333-5.51 6-8z" fill="#b1c9b0"/><path d="M2197 1118h3v9l-2 1-1-10z" fill="#565656"/><path d="M1588 1531l2 1c-4.625 5.875-4.625 5.875-8 7 1.443-3.366 3.333-5.51 6-8z" fill="#a7bda6"/><path d="M1079 1289l2 1-8 8-1-2 7-7z" fill="#262f26"/><path d="M965 1289l2 1-8 8-1-2 7-7z" fill="#2e2e2e"/><path d="M721 1289l2 1-8 8-1-2 7-7z" fill="#2b2b2b"/><path d="M648 1289l2 1-8 8-1-2 7-7z" fill="#2a2a2a"/><path d="M522 1531c-1.491 3.795-3.757 5.61-7 8 2.811-8 2.811-8 7-8z" class="P"/><path d="M1506 1530c-1.285 2.867-2.571 4.976-5 7h-2c3.138-7 3.138-7 7-7z" fill="#b5cdb5"/><path d="M1740 1292l2 1-7 7-2-1 7-7z" fill="#202a20"/><path d="M830 1069l2 1-7 7-1-2c3.75-4.875 3.75-4.875 6-6z" class="P"/><path d="M1202 1546h2c-1.293 2.884-2.659 4.872-5 7l-2-1 5-6z" fill="#293429"/><path d="M49 1532c-1.491 3.795-3.757 5.61-7 8 2.811-8 2.811-8 7-8zm447-228l2 1-7 7-1-2 6-6zm-164 0l2 1-7 7-1-2 6-6z" fill="#d0d0d0"/><path d="M242 1304l2 1-7 7-1-2 6-6z" class="P"/><path d="M2229 1292l2 1-7 7-2-1 7-7z" fill="#202a20"/><path d="M1633 1071l2 1-7 7-1-2 6-6z" fill="#c9c9c9"/><path d="M615 1071l2 1-7 7-1-2 6-6z" fill="#d7d7d7"/><path d="M1720 1069l2 1-7 7-1-2 6-6z" fill="#cecece"/><path d="M1047.25 1068.313l1.75.688-2.312 1.25c-2.624 1.709-3.991 3.16-5.687 5.75-.25-2.312-.25-2.312 0-5 2.137-2.289 3.094-3.126 6.25-2.687z" fill="#d3d3d3"/><path d="M1857 1054l2 1-2.875 3-1.617 1.688C1853 1061 1853 1061 1851 1061c1.393-3.367 2.979-4.986 6-7z" fill="#313131"/><path d="M1413 1558l-.875 1.688L1409 1567h-1c1-9 1-9 5-9z" fill="#9fb59f"/><path d="M1220 1558l-.875 1.688L1216 1567h-1c1-9 1-9 5-9z" fill="#a3b8a3"/><path d="M2155 1308h2c-1.527 3.436-3.599 6.119-6 9 .526-3.788 1.381-6.172 4-9z" fill="#a6bca6"/><path d="M895 1304l2 1-7 7-1-2 6-6z" fill="#d0d0d0"/><path d="M1874.25 1068.313l1.75.688c-4.75 3-4.75 3-7 3l-1 4c-.25-2.312-.25-2.312 0-5 2.137-2.289 3.094-3.126 6.25-2.687z" fill="#c4c4c4"/><defs ><path id="B" d="M763.445 1291.715c4.109 3.366 5.496 5.139 7.555 10.285l-16 8-3.875-3c-4.964-3.331-9.247-4.103-15.125-3-3.224 1.641-3.224 1.641-3.5 4.438.234 2.719.234 2.719 2.543 4.102 3.495 1.727 6.989 2.574 10.77 3.398 9.544 2.265 16.459 4.657 22.188 13.063 3.34 5.79 4.112 11.454 3 18-3.344 7.938-9.135 11.683-16.625 15.25-10.24 3.234-22.532 3.164-32.375-1.25-6.463-3.374-11.343-7.632-15-14v-2l7.25-3.562 2.066-1.037c5.166-2.483 5.166-2.483 7.811-2.062 2.108.745 3.342 1.671 4.998 3.162 3.777 3.284 5.353 3.655 10.25 3.688l2.898.043c2.757-.233 4.376-.821 6.727-2.23v-5c-5.45-2.313-10.858-4.278-16.562-5.875-7.837-2.357-14.98-5.993-19.437-13.125-2.863-6.012-3.234-13.166-1.195-19.5 3.59-7.328 9.304-10.998 16.758-13.875 12.501-2.37 24.287-1.341 34.883 6.09z"/><path id="C" d="M1425.313 1556.688l3.4.068 8.287.244c-.707 5.018-1.734 8.028-5 12-5.228 3.921-11.714 3.863-18 3-2.801-1.312-2.801-1.312-5-3-1.125-3.375-1.125-3.375-1-7 4.28-6.665 10.203-5.583 17.313-5.312z"/><path id="D" d="M2092 1069l2 1-1.461 1.32c-3.863 3.643-6.363 6.322-7.539 11.68-.75-1.562-.75-1.562-1-4 2.073-4.377 3.777-7.436 8-10z"/></defs></svg>
